{
	"asset":{
		"generator":"Khronos glTF Blender I/O v3.6.27",
		"version":"2.0"
	},
	"extensionsUsed":[
		"KHR_materials_specular",
		"KHR_materials_ior"
	],
	"scene":0,
	"scenes":[
		{
			"name":"Scene",
			"nodes":[
				0
			]
		}
	],
	"nodes":[
		{
			"mesh":0,
			"name":"Jet"
		}
	],
	"materials":[
		{
			"doubleSided":true,
			"extensions":{
				"KHR_materials_specular":{
					"specularColorFactor":[
						1.0769009440757495,
						1.0769009440757495,
						1.0769009440757495
					]
				},
				"KHR_materials_ior":{
					"ior":1.4500000476837158
				}
			},
			"name":"Material",
			"pbrMetallicRoughness":{
				"baseColorFactor":[
					0.13031254708766937,
					0.14913804829120636,
					0.11021985113620758,
					1
				],
				"metallicFactor":0.5137614607810974,
				"roughnessFactor":0.4733944833278656
			}
		},
		{
			"doubleSided":true,
			"name":"Material.001",
			"pbrMetallicRoughness":{
				"baseColorFactor":[
					0.3217877447605133,
					0.3562091290950775,
					0.4719504714012146,
					1
				],
				"metallicFactor":0,
				"roughnessFactor":0.17889907956123352
			}
		},
		{
			"doubleSided":true,
			"name":"Material.002",
			"pbrMetallicRoughness":{
				"baseColorFactor":[
					0.0677981898188591,
					0.0677981898188591,
					0.0677981898188591,
					1
				],
				"metallicFactor":0.642201840877533,
				"roughnessFactor":0.20642203092575073
			}
		},
		{
			"doubleSided":true,
			"name":"Material.003",
			"pbrMetallicRoughness":{
				"baseColorFactor":[
					0.017182309180498123,
					0.01567194052040577,
					0.016154054552316666,
					1
				],
				"metallicFactor":0,
				"roughnessFactor":0.5
			}
		}
	],
	"meshes":[
		{
			"name":"Cube",
			"primitives":[
				{
					"attributes":{
						"POSITION":0,
						"NORMAL":1,
						"TEXCOORD_0":2
					},
					"indices":3,
					"material":0
				},
				{
					"attributes":{
						"POSITION":4,
						"NORMAL":5,
						"TEXCOORD_0":6
					},
					"indices":7,
					"material":1
				},
				{
					"attributes":{
						"POSITION":8,
						"NORMAL":9,
						"TEXCOORD_0":10
					},
					"indices":11,
					"material":2
				},
				{
					"attributes":{
						"POSITION":12,
						"NORMAL":13,
						"TEXCOORD_0":14
					},
					"indices":15,
					"material":3
				}
			]
		}
	],
	"accessors":[
		{
			"bufferView":0,
			"componentType":5126,
			"count":1713,
			"max":[
				6.062262535095215,
				2.498260259628296,
				6.452331066131592
			],
			"min":[
				-6.062262535095215,
				-0.8710430860519409,
				-7.370630264282227
			],
			"type":"VEC3"
		},
		{
			"bufferView":1,
			"componentType":5126,
			"count":1713,
			"type":"VEC3"
		},
		{
			"bufferView":2,
			"componentType":5126,
			"count":1713,
			"type":"VEC2"
		},
		{
			"bufferView":3,
			"componentType":5123,
			"count":1812,
			"type":"SCALAR"
		},
		{
			"bufferView":4,
			"componentType":5126,
			"count":156,
			"max":[
				0.4543272852897644,
				0.8913845419883728,
				4.072933673858643
			],
			"min":[
				-0.4543272852897644,
				0.25677621364593506,
				1.3796367645263672
			],
			"type":"VEC3"
		},
		{
			"bufferView":5,
			"componentType":5126,
			"count":156,
			"type":"VEC3"
		},
		{
			"bufferView":6,
			"componentType":5126,
			"count":156,
			"type":"VEC2"
		},
		{
			"bufferView":7,
			"componentType":5123,
			"count":156,
			"type":"SCALAR"
		},
		{
			"bufferView":8,
			"componentType":5126,
			"count":96,
			"max":[
				1.020805835723877,
				0.24727554619312286,
				-6.754838943481445
			],
			"min":[
				-1.020805835723877,
				-0.5803991556167603,
				-7.3681817054748535
			],
			"type":"VEC3"
		},
		{
			"bufferView":9,
			"componentType":5126,
			"count":96,
			"type":"VEC3"
		},
		{
			"bufferView":10,
			"componentType":5126,
			"count":96,
			"type":"VEC2"
		},
		{
			"bufferView":11,
			"componentType":5123,
			"count":132,
			"type":"SCALAR"
		},
		{
			"bufferView":12,
			"componentType":5126,
			"count":92,
			"max":[
				0.9469576478004456,
				-0.2627737522125244,
				1.2558518648147583
			],
			"min":[
				-0.9469576478004456,
				-0.5710102915763855,
				1.036649227142334
			],
			"type":"VEC3"
		},
		{
			"bufferView":13,
			"componentType":5126,
			"count":92,
			"type":"VEC3"
		},
		{
			"bufferView":14,
			"componentType":5126,
			"count":92,
			"type":"VEC2"
		},
		{
			"bufferView":15,
			"componentType":5123,
			"count":108,
			"type":"SCALAR"
		}
	],
	"bufferViews":[
		{
			"buffer":0,
			"byteLength":20556,
			"byteOffset":0,
			"target":34962
		},
		{
			"buffer":0,
			"byteLength":20556,
			"byteOffset":20556,
			"target":34962
		},
		{
			"buffer":0,
			"byteLength":13704,
			"byteOffset":41112,
			"target":34962
		},
		{
			"buffer":0,
			"byteLength":3624,
			"byteOffset":54816,
			"target":34963
		},
		{
			"buffer":0,
			"byteLength":1872,
			"byteOffset":58440,
			"target":34962
		},
		{
			"buffer":0,
			"byteLength":1872,
			"byteOffset":60312,
			"target":34962
		},
		{
			"buffer":0,
			"byteLength":1248,
			"byteOffset":62184,
			"target":34962
		},
		{
			"buffer":0,
			"byteLength":312,
			"byteOffset":63432,
			"target":34963
		},
		{
			"buffer":0,
			"byteLength":1152,
			"byteOffset":63744,
			"target":34962
		},
		{
			"buffer":0,
			"byteLength":1152,
			"byteOffset":64896,
			"target":34962
		},
		{
			"buffer":0,
			"byteLength":768,
			"byteOffset":66048,
			"target":34962
		},
		{
			"buffer":0,
			"byteLength":264,
			"byteOffset":66816,
			"target":34963
		},
		{
			"buffer":0,
			"byteLength":1104,
			"byteOffset":67080,
			"target":34962
		},
		{
			"buffer":0,
			"byteLength":1104,
			"byteOffset":68184,
			"target":34962
		},
		{
			"buffer":0,
			"byteLength":736,
			"byteOffset":69288,
			"target":34962
		},
		{
			"buffer":0,
			"byteLength":216,
			"byteOffset":70024,
			"target":34963
		}
	],
	"buffers":[
		{
			"byteLength":70240,
			"uri":"player.bin"
		}
	]
}
