# Blender v3.5.0 OBJ File: 'tateblend.blend'
# www.blender.org
mtllib tatedake.mtl
o 立方体.002
v 0.000000 0.000000 -0.100000
v 0.650000 0.000000 -0.100000
v -0.650000 0.000000 -0.100000
v 0.000000 1.881403 -0.100000
v 0.650000 1.881403 0.100000
v 0.650000 1.881403 -0.100000
v -0.650000 1.881403 -0.100000
v -0.650000 1.881403 0.100000
v -1.288898 1.881403 -0.061672
v -1.288898 0.000000 -0.261672
v -1.288898 1.881403 -0.261672
v 1.208975 0.000000 -0.256784
v 1.208975 1.881403 -0.256784
v 1.208975 1.881403 -0.056784
v 0.000000 -1.881403 -0.100000
v 0.650000 -1.881403 0.100000
v 0.650000 -1.881403 -0.100000
v -0.650000 -1.881403 -0.100000
v -0.650000 -1.881403 0.100000
v -1.288898 -1.881403 -0.261672
v -1.288898 -1.881403 -0.061672
v 1.208975 -1.881403 -0.056784
v 1.208975 -1.881403 -0.256784
v 1.395349 -2.150174 -0.035604
v -1.501816 2.150174 -0.042121
v -1.501816 -2.150174 -0.042121
v -0.649952 -2.150174 0.173442
v 0.650048 2.150174 0.173442
v 0.650048 -2.150174 0.173442
v 0.650048 -1.881403 0.173442
v -0.649952 2.150174 0.173442
v -0.649952 -1.881403 0.173442
v 1.395349 2.150174 -0.035604
v 0.650048 1.881403 0.173442
v -0.649952 1.881403 0.173442
v -1.288850 1.881403 0.011770
v -1.288850 -1.881403 0.011770
v 1.209024 1.881403 0.016658
v 1.209024 -1.881403 0.016658
v 1.395262 2.150174 -0.366431
v -1.501902 -2.150174 -0.372948
v 0.649962 -2.150174 -0.157385
v -0.650038 2.150174 -0.157385
v 0.649962 2.150174 -0.157385
v 0.649962 -1.881403 -0.157385
v -0.650038 -2.150174 -0.157385
v -0.650038 -1.881403 -0.157385
v -1.501902 2.150174 -0.372948
v 0.649962 1.881403 -0.157385
v -0.650038 1.881403 -0.157385
v 1.208937 1.881403 -0.314169
v -1.288936 1.881403 -0.319057
v -1.288936 -1.881403 -0.319057
v 1.395262 -2.150174 -0.366431
v 1.208937 -1.881403 -0.314169
v -0.291334 0.782071 -0.717975
v -0.291334 1.382071 -0.717975
v 0.308666 1.382071 -0.718267
v 0.308666 0.782071 -0.718267
v 0.308958 1.382071 -0.118267
v 0.308958 0.782071 -0.118267
v -0.291042 1.382071 -0.117975
v -0.291042 0.782071 -0.117975
v -0.280328 -0.250745 -0.720979
v -0.280328 0.349255 -0.720979
v 0.319672 0.349255 -0.721271
v 0.319671 -0.250745 -0.721271
v 0.319964 0.349255 -0.121271
v 0.319964 -0.250745 -0.121271
v -0.280036 0.349255 -0.120979
v -0.280036 -0.250745 -0.120979
v 0.441766 1.155447 -0.479491
v 0.441766 0.983660 -0.479491
v 0.441766 1.155447 -0.054745
v 0.441766 0.983660 -0.054745
v -0.441766 1.155447 -0.479491
v -0.441766 0.983660 -0.479491
v -0.441766 1.155447 -0.054745
v -0.441766 0.983660 -0.054745
v 0.441766 0.110755 -0.479491
v 0.441766 -0.061032 -0.479491
v 0.441766 0.110755 -0.054745
v 0.441766 -0.061032 -0.054745
v -0.441766 0.110755 -0.479491
v -0.441766 -0.061032 -0.479491
v -0.441766 0.110755 -0.054745
v -0.441766 -0.061032 -0.054745
v 0.207673 -1.398926 0.063124
v 0.207673 1.458426 0.063124
v 0.207673 -1.398926 0.163124
v 0.207673 1.458426 0.163124
v -0.207673 -1.398926 0.063124
v -0.207673 1.458426 0.063124
v -0.207673 -1.398926 0.163124
v -0.207673 1.458426 0.163124
v 0.207673 0.744088 0.063124
v 0.207673 0.744088 0.163124
v -0.207673 0.744088 0.163124
v -0.207673 0.744088 0.063124
v 0.207673 0.386919 0.163124
v -0.207673 0.386919 0.163124
v -0.207673 0.386919 0.063124
v 0.207673 0.386919 0.063124
v -0.773748 0.744088 0.163124
v -0.773748 0.744088 0.063124
v -0.773748 0.386919 0.163124
v -0.773748 0.386919 0.063124
v 0.773748 0.386919 0.063124
v 0.773748 0.744088 0.063124
v 0.773748 0.744088 0.163124
v 0.773748 0.386919 0.163124
vt 0.280940 0.988868
vt 0.280879 0.988798
vt 0.281000 0.988798
vt 0.279623 0.989003
vt 0.279553 0.988855
vt 0.279623 0.988602
vt 0.279823 0.988863
vt 0.279744 0.989003
vt 0.279744 0.988602
vt 0.280093 0.989003
vt 0.280335 0.988602
vt 0.280335 0.989003
vt 0.189222 0.988488
vt 0.189247 0.988530
vt 0.189222 0.988530
vt 0.189198 0.988488
vt 0.189198 0.988530
vt 0.189914 0.988955
vt 0.189871 0.989034
vt 0.189871 0.988955
vt 0.280798 0.989773
vt 0.280851 0.989894
vt 0.280851 0.989963
vt 0.280911 0.989963
vt 0.280972 0.989894
vt 0.281052 0.988678
vt 0.281000 0.988868
vt 0.189198 0.988572
vt 0.189247 0.988657
vt 0.189198 0.988657
vt 0.189523 0.989299
vt 0.189566 0.989222
vt 0.189566 0.989299
vt 0.280781 0.990514
vt 0.280796 0.990635
vt 0.280781 0.990635
vt 0.189222 0.988572
vt 0.189198 0.988572
vt 0.189829 0.988955
vt 0.280820 0.988672
vt 0.280879 0.988868
vt 0.280577 0.989252
vt 0.280335 0.988852
vt 0.280577 0.988852
vt 0.189608 0.989299
vt 0.281021 0.989139
vt 0.281036 0.989260
vt 0.281021 0.989260
vt 0.280625 0.989894
vt 0.280566 0.989787
vt 0.280566 0.989698
vt 0.281561 0.989131
vt 0.281576 0.989252
vt 0.281561 0.989252
vt 0.279893 0.988863
vt 0.280014 0.989264
vt 0.279893 0.989264
vt 0.280108 0.989067
vt 0.280562 0.988790
vt 0.280014 0.988863
vt 0.280093 0.988602
vt 0.280320 0.989783
vt 0.280346 0.989663
vt 0.280346 0.989868
vt 0.280001 0.990398
vt 0.280089 0.990610
vt 0.280001 0.990610
vt 0.281516 0.989910
vt 0.281604 0.989698
vt 0.281604 0.989910
vt 0.280746 0.989894
vt 0.280798 0.989793
vt 0.280746 0.989983
vt 0.280820 0.989139
vt 0.280909 0.989260
vt 0.280820 0.989260
vt 0.281031 0.989767
vt 0.281031 0.989698
vt 0.280805 0.988863
vt 0.280820 0.988927
vt 0.280577 0.988927
vt 0.280055 0.989598
vt 0.279813 0.989598
vt 0.280040 0.989532
vt 0.280593 0.988863
vt 0.280593 0.988793
vt 0.280699 0.988793
vt 0.279828 0.989532
vt 0.279828 0.989462
vt 0.279934 0.989462
vt 0.281682 0.989458
vt 0.281659 0.989347
vt 0.282913 0.995414
vt 0.189920 0.988495
vt 0.189845 0.988580
vt 0.189845 0.988495
vt 0.189327 0.989299
vt 0.189249 0.989214
vt 0.189327 0.989214
vt 0.279823 0.989011
vt 0.280625 0.989983
vt 0.281546 0.989131
vt 0.281561 0.989252
vt 0.281546 0.989252
vt 0.218057 0.990808
vt 0.217685 0.990436
vt 0.218057 0.990436
vt 0.230763 0.825284
vt 0.119473 0.713994
vt 0.230763 0.713994
vt 0.220480 0.989450
vt 0.220108 0.989078
vt 0.220480 0.989078
vt 0.220341 0.990527
vt 0.219969 0.990155
vt 0.220341 0.990155
vt 0.218886 0.990234
vt 0.218514 0.990606
vt 0.218514 0.990234
vt 0.220327 0.989748
vt 0.219955 0.990120
vt 0.219955 0.989748
vt 0.218456 0.990452
vt 0.218085 0.990080
vt 0.218456 0.990080
vt 0.796439 0.233185
vt 0.685149 0.121895
vt 0.796439 0.121895
vt 0.220108 0.989450
vt 0.219736 0.989078
vt 0.220108 0.989078
vt 0.219969 0.990527
vt 0.219597 0.990155
vt 0.219969 0.990155
vt 0.219285 0.990234
vt 0.218913 0.990606
vt 0.218913 0.990234
vt 0.220359 0.988066
vt 0.219987 0.988437
vt 0.219987 0.988066
vt 0.250526 0.993157
vt 0.250570 0.992980
vt 0.250570 0.993157
vt 0.250523 0.992645
vt 0.250567 0.992469
vt 0.250567 0.992645
vt 0.250653 0.991988
vt 0.250635 0.992165
vt 0.250635 0.991988
vt 0.249948 0.993381
vt 0.249929 0.993558
vt 0.249929 0.993381
vt 0.250499 0.992165
vt 0.250619 0.993333
vt 0.250641 0.993157
vt 0.250641 0.993333
vt 0.250348 0.993510
vt 0.250323 0.993333
vt 0.250348 0.993333
vt 0.249252 0.992916
vt 0.249278 0.993092
vt 0.249252 0.993092
vt 0.312392 0.988798
vt 0.312412 0.988774
vt 0.312412 0.988798
vt 0.250619 0.993510
vt 0.250641 0.993333
vt 0.250641 0.993510
vt 0.250610 0.992787
vt 0.250635 0.992963
vt 0.250610 0.992963
vt 0.250635 0.992165
vt 0.250609 0.991988
vt 0.250635 0.991988
vt 0.249240 0.993422
vt 0.249222 0.993400
vt 0.249240 0.993400
vt 0.249996 0.993510
vt 0.250106 0.993333
vt 0.250106 0.993510
vt 0.279553 0.989256
vt 0.279823 0.989264
vt 0.189247 0.988488
vt 0.189914 0.989034
vt 0.280798 0.989704
vt 0.280972 0.989963
vt 0.281052 0.988608
vt 0.189247 0.988572
vt 0.189523 0.989222
vt 0.280796 0.990514
vt 0.189247 0.988572
vt 0.189829 0.989034
vt 0.280820 0.988602
vt 0.280335 0.989252
vt 0.189608 0.989222
vt 0.281036 0.989139
vt 0.281576 0.989131
vt 0.280108 0.989262
vt 0.280093 0.989262
vt 0.280335 0.989262
vt 0.280320 0.989067
vt 0.280320 0.989262
vt 0.280562 0.988602
vt 0.280577 0.988602
vt 0.280335 0.988602
vt 0.280350 0.988790
vt 0.280350 0.988602
vt 0.280320 0.989578
vt 0.280089 0.990398
vt 0.281516 0.989698
vt 0.280798 0.989704
vt 0.280909 0.989139
vt 0.280805 0.988672
vt 0.280820 0.988672
vt 0.280577 0.988672
vt 0.280593 0.988672
vt 0.279813 0.989333
vt 0.279828 0.989333
vt 0.280040 0.989333
vt 0.280055 0.989333
vt 0.280805 0.988793
vt 0.280040 0.989462
vt 0.281659 0.989544
vt 0.189920 0.988580
vt 0.189249 0.989299
vt 0.279823 0.988610
vt 0.281561 0.989131
vt 0.217685 0.990808
vt 0.119473 0.825284
vt 0.220108 0.989450
vt 0.219969 0.990527
vt 0.218886 0.990606
vt 0.220327 0.990120
vt 0.218085 0.990452
vt 0.685149 0.233185
vt 0.219736 0.989450
vt 0.219597 0.990527
vt 0.219285 0.990606
vt 0.220359 0.988437
vt 0.250526 0.992980
vt 0.250523 0.992469
vt 0.250653 0.992165
vt 0.249948 0.993558
vt 0.250499 0.991988
vt 0.250619 0.993157
vt 0.250323 0.993510
vt 0.249278 0.992916
vt 0.312365 0.988798
vt 0.312365 0.988774
vt 0.312392 0.988774
vt 0.312392 0.988655
vt 0.312412 0.988655
vt 0.312412 0.988846
vt 0.312392 0.988846
vt 0.312439 0.988774
vt 0.312439 0.988798
vt 0.250619 0.993333
vt 0.250635 0.992787
vt 0.250609 0.992165
vt 0.249240 0.993466
vt 0.249222 0.993466
vt 0.249222 0.993422
vt 0.249197 0.993422
vt 0.249197 0.993400
vt 0.249266 0.993400
vt 0.249266 0.993422
vt 0.249222 0.993290
vt 0.249240 0.993290
vt 0.249996 0.993333
vt 0.000000 0.000000
vt 0.000000 0.000000
vt 0.000000 0.000000
vt 0.000000 0.000000
vt 0.000000 0.000000
vt 0.000000 0.000000
vt 0.000000 0.000000
vt 0.000000 0.000000
vt 0.000000 0.000000
vt 0.000000 0.000000
vt 0.000000 0.000000
vt 0.000000 0.000000
vt 0.000000 0.000000
vt 0.000000 0.000000
vt 0.000000 0.000000
vt 0.000000 0.000000
vn 0.0000 -1.0000 0.0000
vn -1.0000 0.0000 0.0003
vn 0.0000 0.0000 -1.0000
vn 0.2453 0.0000 -0.9694
vn 0.0000 1.0000 0.0000
vn 0.0000 0.0000 1.0000
vn -0.2701 0.0000 -0.9628
vn 1.0000 0.0000 -0.0003
vn -0.2453 0.0000 0.9694
vn 0.2701 0.0000 0.9628
vn -1.0000 0.0000 0.0007
vn 1.0000 -0.0000 -0.0007
vn -1.0000 0.0000 0.0000
vn 1.0000 0.0000 0.0000
vn -0.5776 0.5774 -0.5771
vn 0.5771 -0.5774 -0.5776
vn -0.5776 -0.5774 -0.5771
vn 0.5771 0.5774 -0.5776
vn 0.5776 -0.5774 0.5771
vn -0.5771 0.5774 0.5776
vn -0.5771 -0.5774 0.5776
vn 0.5776 0.5774 0.5771
usemtl Material
s off
f 4/1/1 50/2/1 49/3/1
f 42/4/1 24/5/1 29/6/1
f 26/7/1 46/8/1 27/9/1
f 27/9/1 42/4/1 29/6/1
f 25/10/2 41/11/2 26/12/2
f 4/13/3 2/14/3 1/15/3
f 7/16/3 1/15/3 3/17/3
f 11/18/4 3/19/4 10/20/4
f 23/21/5 45/22/5 17/23/5
f 15/24/5 45/22/5 47/25/5
f 49/3/1 13/26/1 6/27/1
f 5/28/6 19/29/6 16/30/6
f 6/31/7 12/32/7 2/33/7
f 31/34/6 34/35/6 28/36/6
f 2/14/3 15/37/3 1/15/3
f 1/15/3 18/38/3 3/17/3
f 3/19/4 20/39/4 10/20/4
f 11/40/1 50/2/1 7/41/1
f 54/42/8 33/43/8 24/44/8
f 12/32/7 17/45/7 2/33/7
f 32/46/6 29/47/6 30/48/6
f 8/49/1 36/50/1 9/51/1
f 45/52/3 46/53/3 47/54/3
f 44/55/5 31/56/5 28/57/5
f 36/58/9 25/10/9 26/12/9
f 39/59/10 24/44/10 33/43/10
f 25/10/5 43/60/5 48/61/5
f 19/62/5 37/63/5 32/64/5
f 22/65/11 38/66/11 14/67/11
f 36/68/12 21/69/12 9/70/12
f 5/71/1 38/72/1 34/73/1
f 32/74/1 16/75/1 30/76/1
f 20/77/5 47/25/5 53/78/5
f 51/79/7 40/80/7 54/81/7
f 41/82/4 48/83/4 53/84/4
f 55/85/11 23/86/11 12/87/11
f 52/88/12 11/89/12 10/90/12
f 16/91/5 39/92/5 22/93/5
f 5/94/10 22/95/10 14/96/10
f 21/97/9 8/98/9 9/99/9
f 33/100/5 44/55/5 28/57/5
f 5/71/1 35/101/1 8/49/1
f 44/102/3 50/103/3 43/104/3
f 73/105/13 74/106/13 72/107/13
f 75/108/3 78/109/3 74/110/3
f 79/111/14 76/112/14 78/113/14
f 77/114/6 72/115/6 76/116/6
f 78/117/1 72/118/1 74/119/1
f 75/120/5 77/121/5 79/122/5
f 81/123/13 82/124/13 80/125/13
f 83/126/3 86/127/3 82/128/3
f 87/129/14 84/130/14 86/131/14
f 85/132/6 80/133/6 84/134/6
f 86/135/1 80/136/1 82/137/1
f 83/138/5 85/139/5 87/140/5
f 89/141/14 97/142/14 96/143/14
f 95/144/13 99/145/13 98/146/13
f 94/147/1 88/148/1 90/149/1
f 91/150/5 93/151/5 95/152/5
f 103/153/14 90/149/14 88/148/14
f 104/154/13 107/155/13 106/156/13
f 99/157/5 104/158/5 98/159/5
f 101/160/1 107/161/1 102/162/1
f 96/163/3 102/164/3 99/165/3
f 109/166/14 111/167/14 108/168/14
f 97/169/5 109/170/5 96/171/5
f 103/172/1 111/173/1 100/174/1
f 97/175/6 101/176/6 100/177/6
f 101/178/13 92/179/13 94/180/13
f 49/3/1 6/27/1 4/1/1
f 4/1/1 7/41/1 50/2/1
f 42/4/1 54/181/1 24/5/1
f 26/7/1 41/182/1 46/8/1
f 27/9/1 46/8/1 42/4/1
f 25/10/2 48/61/2 41/11/2
f 4/13/3 6/183/3 2/14/3
f 7/16/3 4/13/3 1/15/3
f 11/18/4 7/184/4 3/19/4
f 23/21/5 55/185/5 45/22/5
f 47/25/5 18/186/5 15/24/5
f 15/24/5 17/23/5 45/22/5
f 49/3/1 51/187/1 13/26/1
f 5/28/6 8/188/6 19/29/6
f 6/31/7 13/189/7 12/32/7
f 31/34/6 35/190/6 34/35/6
f 2/14/3 17/191/3 15/37/3
f 1/15/3 15/37/3 18/38/3
f 3/19/4 18/192/4 20/39/4
f 11/40/1 52/193/1 50/2/1
f 54/42/8 40/194/8 33/43/8
f 12/32/7 23/195/7 17/45/7
f 32/46/6 27/196/6 29/47/6
f 8/49/1 35/101/1 36/50/1
f 45/52/3 42/197/3 46/53/3
f 44/55/5 43/60/5 31/56/5
f 36/58/9 35/198/9 31/199/9
f 26/12/9 27/200/9 37/201/9
f 27/200/9 32/202/9 37/201/9
f 36/58/9 31/199/9 25/10/9
f 26/12/9 37/201/9 36/58/9
f 39/59/10 30/203/10 29/204/10
f 33/43/10 28/205/10 38/206/10
f 28/205/10 34/207/10 38/206/10
f 39/59/10 29/204/10 24/44/10
f 33/43/10 38/206/10 39/59/10
f 25/10/5 31/56/5 43/60/5
f 19/62/5 21/208/5 37/63/5
f 22/65/11 39/209/11 38/66/11
f 36/68/12 37/210/12 21/69/12
f 5/71/1 14/211/1 38/72/1
f 32/74/1 19/212/1 16/75/1
f 20/77/5 18/186/5 47/25/5
f 51/79/7 49/213/7 44/214/7
f 54/81/7 42/215/7 55/85/7
f 42/215/7 45/216/7 55/85/7
f 51/79/7 44/214/7 40/80/7
f 54/81/7 55/85/7 51/79/7
f 48/83/4 43/217/4 52/88/4
f 43/217/4 50/218/4 52/88/4
f 47/219/4 46/220/4 53/84/4
f 46/220/4 41/82/4 53/84/4
f 48/83/4 52/88/4 53/84/4
f 12/87/11 13/221/11 51/79/11
f 51/79/11 55/85/11 12/87/11
f 10/90/12 20/222/12 53/84/12
f 53/84/12 52/88/12 10/90/12
f 16/91/5 30/223/5 39/92/5
f 5/94/10 16/224/10 22/95/10
f 21/97/9 19/225/9 8/98/9
f 33/100/5 40/226/5 44/55/5
f 5/71/1 34/73/1 35/101/1
f 44/102/3 49/227/3 50/103/3
f 73/105/13 75/228/13 74/106/13
f 75/108/3 79/229/3 78/109/3
f 79/111/14 77/230/14 76/112/14
f 77/114/6 73/231/6 72/115/6
f 78/117/1 76/232/1 72/118/1
f 75/120/5 73/233/5 77/121/5
f 81/123/13 83/234/13 82/124/13
f 83/126/3 87/235/3 86/127/3
f 87/129/14 85/236/14 84/130/14
f 85/132/6 81/237/6 80/133/6
f 86/135/1 84/238/1 80/136/1
f 83/138/5 81/239/5 85/139/5
f 89/141/14 91/240/14 97/142/14
f 95/144/13 93/241/13 99/145/13
f 94/147/1 92/242/1 88/148/1
f 91/150/5 89/243/5 93/151/5
f 103/153/14 100/244/14 90/149/14
f 104/154/13 105/245/13 107/155/13
f 99/157/5 105/246/5 104/158/5
f 101/160/1 106/247/1 107/161/1
f 96/163/3 109/248/3 108/249/3
f 103/250/3 88/251/3 92/252/3
f 96/163/3 108/249/3 103/250/3
f 93/253/3 89/254/3 96/163/3
f 107/255/3 105/256/3 99/165/3
f 99/165/3 93/253/3 96/163/3
f 96/163/3 103/250/3 102/164/3
f 103/250/3 92/252/3 102/164/3
f 102/164/3 107/255/3 99/165/3
f 109/166/14 110/257/14 111/167/14
f 97/169/5 110/258/5 109/170/5
f 103/172/1 108/259/1 111/173/1
f 97/175/6 91/260/6 95/261/6
f 98/262/6 104/263/6 106/264/6
f 97/175/6 95/261/6 98/262/6
f 111/265/6 110/266/6 97/175/6
f 94/267/6 90/268/6 100/177/6
f 100/177/6 111/265/6 97/175/6
f 97/175/6 98/262/6 101/176/6
f 98/262/6 106/264/6 101/176/6
f 101/176/6 94/267/6 100/177/6
f 101/178/13 102/269/13 92/179/13
s 1
f 57/270/15 59/271/16 56/272/17
f 58/273/18 61/274/19 59/271/16
f 61/274/19 62/275/20 63/276/21
f 62/275/20 56/272/17 63/276/21
f 61/274/19 56/272/17 59/271/16
f 60/277/22 57/270/15 62/275/20
f 65/278/15 67/279/16 64/280/17
f 66/281/18 69/282/19 67/279/16
f 69/282/19 70/283/20 71/284/21
f 70/283/20 64/280/17 71/284/21
f 69/282/19 64/280/17 67/279/16
f 68/285/22 65/278/15 70/283/20
f 57/270/15 58/273/18 59/271/16
f 58/273/18 60/277/22 61/274/19
f 61/274/19 60/277/22 62/275/20
f 62/275/20 57/270/15 56/272/17
f 61/274/19 63/276/21 56/272/17
f 60/277/22 58/273/18 57/270/15
f 65/278/15 66/281/18 67/279/16
f 66/281/18 68/285/22 69/282/19
f 69/282/19 68/285/22 70/283/20
f 70/283/20 65/278/15 64/280/17
f 69/282/19 71/284/21 64/280/17
f 68/285/22 66/281/18 65/278/15
